<?xml version="1.0" encoding="UTF-8"?>
<svg version="1.1" viewBox="0 0 800 800" width="1280" height="1280" xmlns="http://www.w3.org/2000/svg">
<path transform="translate(0)" d="m0 0h800v800h-800z" fill="#F6F7F7"/>
<path transform="translate(477,154)" d="m0 0h27l16 4 15 8 10 8 7 7 9 14 6 14 5 21 1 10v16l-2 16-4 20-8 23-8 16-8 14-14 19-14 15-7 7-14 11-14 9-8 4-24 4-9 1h-31l-21-3-19-5-21-9-18-10-16-12-15-14-11-13-7-10-9-15-8-17-5-15-4-17-2-20v-8l2-2 3 19 6 18 8 16 9 13 11 12 15 12 14 8 17 6 15 3 11 1h16l18-2 18-4 25-9 16-9 11-9 12-12 9-12 8-13 8-19 3-12 1-7v-17l-3-10-4-6-6-4-9-2h-15l-17 3-24 8-21 9-15 7-29 14-11 2-3-1v-7l6-10 11-13 1-2h2v-2l3-3h2v-2l8-7 12-10 17-12 10-6 15-8 21-8z" fill="#1995D2"/>
<path transform="translate(368,100)" d="m0 0h17l-4 2-19 5-12 4-12 5-17 9-14 10-14 12-10 11-1 2h-2l-2 5-7 11-8 16-6 18-3 21-1 24 2 20 6 24 9 21 9 16 10 14 12 14 13 12 15 11 18 10 21 9 19 5 21 3h31l20-3 5-1h7l-4 3-8 4-15 6-16 5-17 4-8 1h-32l-15-2-22-5-16-6-16-8-14-8-14-11-12-11-6-6v-2h-2l-12-16-10-16-8-17-8-24-3-16-1-7v-34l4-22 7-21 8-16 6-10 13-17 5-6 8-7 10-9 5-2v-2l20-12 17-8 18-6 25-5z" fill="#F05D2A"/>
<path transform="translate(186,595)" d="m0 0h51l9 3 6 4 5 6 4 8 3 13v32l-3 13-6 11-9 7-9 3h-52v-99z" fill="#F05D2A"/>
<path transform="translate(567,276)" d="m0 0h1l-1 9-5 18-2 5-2 9-8 16-11 18-11 14-12 13-8 8-14 11-14 9-8 4-24 4-9 1h-31l-21-3-19-5-21-9-18-10-9-7h3l5 2 12 5 19 4 9 1h16l23-2 14-3 14-4 17-7 22-13 4-2v-2l10-8 4-2 2-4h2v-2h2l2-4 11-13 8-12 1-3h2l1-4 4-8 3-1v2h11l16-2 4-1 1-5 4-13z" fill="#1674BA"/>
<path transform="translate(346,103)" d="m0 0h5l-4 2-21 6-12 5-5 2-2 3-4 2 2 1-1 4-6 4h-2v2h-3v2l-5 2v2l-6 5h-2v2l-7 6-8 10-8 11-9 16-5 10-2 6-3 19v5l2 3 2 8 2 1 3 5 3 2 3 28 7 24 7 17 10 18 13 19 12 12 3 4-6-2-11-7v-2l-4-2-10-9-2-1-1-3-5-5-8-10-3-5-7-12-6-13-5-2-17-1-1 2-2-5-2 2-3-18v-34l4-22 7-21 8-16 6-10 13-17 5-6 8-7 10-9 5-2v-2l20-12 17-8 18-6z" fill="#F1702E"/>
<path transform="translate(111,476)" d="m0 0h22l10 3 8 7 4 10 2 10v30l-3 12-5 8-6 5-10 3h-23l-9-3-5-3-6-10-3-14v-27l3-14 3-6 5-6 8-4z" fill="#1677BC"/>
<path transform="translate(488,62)" d="m0 0h17l13 5 10 9 5 8 4 13v9l-2 9-5 10-10 10-11 5-13 2-12-2-10-5-9-8-5-9-3-9v-15l4-11 7-10 8-6z" fill="#1995D2"/>
<path transform="translate(453,595)" d="m0 0h23l1 65 2 9 1 3 5 2h14l5-3 3-7 1-69h23v68l-3 14-4 8-5 5-6 4-9 2h-26l-10-3-7-6-4-8-3-11-1-12z" fill="#F05D2A"/>
<path transform="translate(289,595)" d="m0 0h29l19 1 4 1v19l-42 1-3 1v17h25l13 1v19l-22 1h-16l1 16 2 2h41l1 1v18l-5 1-32 2h-15l-8-3-6-7-2-5v-70l3-8 7-6z" fill="#F05D2A"/>
<path transform="translate(539,595)" d="m0 0h70v21l-10 15-27 40-2 3h37l2 1v20h-70v-21l13-18 14-19 10-14 4-6-40-1-1-1z" fill="#F05D2A"/>
<path transform="translate(166,477)" d="m0 0h20l10 16 13 22 6 9 1-47h19v86h-20l-15-24-14-23v47h-20z" fill="#1675BA"/>
<path transform="translate(448,477)" d="m0 0h20l11 18 9 15 9 14v-47h20v86h-20l-12-19-12-20-4-6v-2h-2v47h-19z" fill="#1675BA"/>
<path transform="translate(346,477)" d="m0 0h46l9 4 5 6 3 9v17l-3 10-6 7-8 3h-12l-14-2v32h-20z" fill="#1675BB"/>
<path transform="translate(268,476)" d="m0 0h17l19 3 3 1v16l-19-2h-13l-7 3-3 7-1 20 1 13 3 6 4 2h9l5-3h2l1-14h-10v-12l9-3h20v51h-14l-4-4-5 2-6 2h-16l-10-5-4-5-4-12-1-6v-32l3-12 5-8 6-5 4-2z" fill="#1676BC"/>
<path transform="translate(607,477)" d="m0 0h28l15 1 2 1v16l-38 1-1 16h25l8 1v16l-14 1h-19l1 12 2 3h36v16l-4 1-28 2h-14l-8-4-4-7v-65l4-6 6-4z" fill="#1676BB"/>
<path transform="translate(386,595)" d="m0 0h22l1 76 2 2 36 1 1 1v20h-48l-10-5-4-7-1-7v-80z" fill="#F05D2A"/>
<path transform="translate(550,476)" d="m0 0h14l14 2 7 2v16l-17-1h-13l-6 1-2 5-1 3-1 19 1 13 5 8 3 1h31v16l-12 3h-26l-9-4-5-4-4-6-4-16v-28l4-16 4-6 8-6z" fill="#1677BC"/>
<path transform="translate(368,100)" d="m0 0h17l-4 2-19 5-12 4-12 5-17 9-14 10-14 12-10 11-1 2h-2l-2 5-7 11-8 16-6 18-3 21-1 24 2 20 1 9-2-1-2-6-3-28-5-4v-3l-3-1-3-9-1-4 1-10 2-12 5-12 9-17 10-14 12-14 4-2v-2l6-5h2v-2l5-2v-2h3v-2l6-4h2l1-4-3-1 5-3 4-4 5-2 16-6 19-5 7-2z" fill="#F0602B"/>
<path transform="translate(660,477)" d="m0 0h20v67l33 1 1 1v17h-42l-8-4-3-4-1-3z" fill="#1675BA"/>
<path transform="translate(346,103)" d="m0 0h5l-4 2-21 6-12 5-5 2-2 3-4 2 2 1-1 4-6 4h-2v2h-3v2l-5 2v2l-6 5h-2v2l-7 6-8 10-8 11-9 16-5 10-8 28h-8l-4 1-3-4-3 8-2 9-1 12v22l2 14v6l-2-4-2-14v-34l4-22 7-21 8-16 6-10 13-17 5-6 8-7 10-9 5-2v-2l20-12 17-8 18-6z" fill="#F2984E"/>
<path transform="translate(208,614)" d="m0 0h21l6 2 4 5 2 6 1 7v22l-3 12-3 5-4 2h-24z" fill="#F6F7F7"/>
<path transform="translate(418,477)" d="m0 0h20v86h-20z" fill="#1674BA"/>
<path transform="translate(458,103)" d="m0 0h2l4 6v2l6 2h21l8-2h6l1 3 5 2h9l2 5h7l-1 4-4 4-3 5-12 6-13 2-12-2-10-5-10-12-5-10z" fill="#1675BB"/>
<path transform="translate(115,494)" d="m0 0h14l4 2 4 8v32l-4 8-4 2h-14l-5-3-3-7v-32l4-8z" fill="#F6F7F7"/>
<path transform="translate(253,245)" d="m0 0h1l3 19 6 18 8 16 9 13 1 5h-6l-3-1 8 16 7 11 9 12 6 7 5 5 2 4h-3l-10-10-11-14-7-10-9-16-7-16-5-16-4-20-1-21z" fill="#1678BD"/>
<path transform="translate(366,494)" d="m0 0h19l4 4v14l-5 4h-18z" fill="#F6F7F7"/>
<path transform="translate(368,100)" d="m0 0h17l-4 2-19 5-12 4-10 4h-2v-2l-12 4-17 9-9 6-2-1 4-3h2l1-4-3-1 5-3 4-4 5-2 16-6 19-5 7-2z" fill="#F16F2E"/>
<path transform="translate(368,100)" d="m0 0h17l-4 2-19 5-2-1v-1h-5l-3-1v-2z" fill="#F17F3E"/>
<path transform="translate(355,107)" d="m0 0 4 1-17 6-4 1 2-4 8-3z" fill="#F17A3C"/>
</svg>
